<svg width="299" height="299" viewBox="0 0 299 299" fill="none" xmlns="http://www.w3.org/2000/svg">
<path fill-rule="evenodd" clip-rule="evenodd" d="M149.492 24.9161C101.278 24.9161 62.2832 63.9107 62.2832 112.124C62.2832 164.076 117.349 235.711 140.023 262.995C145.007 268.975 154.101 268.975 159.084 262.995C181.634 235.711 236.7 164.076 236.7 112.124C236.7 63.9107 197.705 24.9161 149.492 24.9161ZM149.492 143.27C132.299 143.27 118.346 129.317 118.346 112.124C118.346 94.932 132.299 80.9786 149.492 80.9786C166.684 80.9786 180.637 94.932 180.637 112.124C180.637 129.317 166.684 143.27 149.492 143.27Z" fill="#9C0105"/>
</svg>
