<?xml version="1.0" encoding="utf-8"?>
<!-- Generator: Adobe Illustrator 16.0.0, SVG Export Plug-In . SVG Version: 6.00 Build 0)  -->
<!DOCTYPE svg PUBLIC "-//W3C//DTD SVG 1.1//EN" "http://www.w3.org/Graphics/SVG/1.1/DTD/svg11.dtd">
<svg version="1.1" id="Layer_1" xmlns="http://www.w3.org/2000/svg" xmlns:xlink="http://www.w3.org/1999/xlink" x="0px" y="0px"
	 width="60px" height="60px" viewBox="0 0 60 60" enable-background="new 0 0 60 60" xml:space="preserve">
<g>
	<path d="M39.692,57.271c-0.752-0.041-1.43-0.424-1.858-1.047L19.748,29.773c-0.751-1.101-0.467-2.607,0.632-3.36
		c0.067-0.045,0.13-0.084,0.195-0.12c0.355-0.209,0.778-0.324,1.209-0.324h5.577c4.776,0,8.663-4.129,8.663-9.205
		c0-0.155-0.004-0.31-0.011-0.463H10.73c-1.333,0-2.417-1.084-2.417-2.417s1.084-2.417,2.417-2.417h23.71
		c-1.614-2.43-4.259-3.907-7.08-3.907H10.73c-1.333,0-2.417-1.084-2.417-2.416c0-1.333,1.084-2.417,2.417-2.417H49.27
		c1.333,0,2.417,1.084,2.417,2.417s-1.084,2.417-2.417,2.417H37.543c0.971,1.162,1.76,2.491,2.314,3.907h9.411
		c1.332,0,2.416,1.084,2.416,2.416c0,1.333-1.084,2.417-2.417,2.417h-8.419c0.005,0.154,0.007,0.308,0.007,0.463
		c0,7.741-6.057,14.039-13.497,14.039h-1.053l15.518,22.691c0.749,1.1,0.467,2.604-0.63,3.357c-0.403,0.273-0.875,0.422-1.364,0.422
		L39.692,57.271z"/>
</g>
</svg>