<svg width="112" height="124" viewBox="0 0 112 124" fill="none" xmlns="http://www.w3.org/2000/svg">
<path d="M107.459 19.6452H84.276V4.31447C84.276 3.1702 83.8214 2.0728 83.0123 1.26368C82.2032 0.454558 81.1058 0 79.9615 0H31.812C30.6678 0 29.5704 0.454558 28.7612 1.26368C27.9521 2.0728 27.4976 3.1702 27.4976 4.31447V19.6452H4.31447C3.1702 19.6452 2.0728 20.0998 1.26368 20.9089C0.454561 21.718 0 22.8154 0 23.9597C0 25.104 0.454561 26.2014 1.26368 27.0105C2.0728 27.8196 3.1702 28.2742 4.31447 28.2742H9.86576V107.862C9.87338 112.045 11.5404 116.054 14.501 119.009C17.4615 121.964 21.4737 123.624 25.6567 123.624H86.3469C90.49 123.564 94.4433 121.877 97.3543 118.929C100.265 115.98 101.901 112.005 101.908 107.862V28.2742H107.344C108.488 28.2894 109.592 27.8495 110.412 27.0512C111.232 26.2528 111.701 25.1615 111.716 24.0172C111.731 22.873 111.291 21.7695 110.493 20.9496C109.695 20.1297 108.603 19.6605 107.459 19.6452ZM36.1265 8.62894H75.647V19.6452H36.1265V8.62894ZM93.2789 107.862C93.2712 109.756 92.5133 111.571 91.171 112.907C89.8287 114.244 88.0113 114.995 86.1168 114.995H25.5417C23.6672 114.965 21.8792 114.201 20.5616 112.867C19.2441 111.534 18.502 109.736 18.4947 107.862V28.2742H93.2789V107.862Z" fill="#9C0105"/>
<path d="M44.3814 44.2085C43.2371 44.2085 42.1397 44.6631 41.3306 45.4722C40.5215 46.2813 40.0669 47.3787 40.0669 48.523V94.8028C40.0669 95.9471 40.5215 97.0445 41.3306 97.8536C42.1397 98.6628 43.2371 99.1173 44.3814 99.1173C45.5256 99.1173 46.623 98.6628 47.4322 97.8536C48.2413 97.0445 48.6958 95.9471 48.6958 94.8028V48.523C48.6958 47.3787 48.2413 46.2813 47.4322 45.4722C46.623 44.6631 45.5256 44.2085 44.3814 44.2085Z" fill="#9C0105"/>
<path d="M67.3916 44.2085C66.2474 44.2085 65.1499 44.6631 64.3408 45.4722C63.5317 46.2813 63.0771 47.3787 63.0771 48.523V94.8028C63.0771 95.9471 63.5317 97.0445 64.3408 97.8536C65.1499 98.6628 66.2474 99.1173 67.3916 99.1173C68.5359 99.1173 69.6333 98.6628 70.4424 97.8536C71.2515 97.0445 71.7061 95.9471 71.7061 94.8028V48.523C71.7061 47.3787 71.2515 46.2813 70.4424 45.4722C69.6333 44.6631 68.5359 44.2085 67.3916 44.2085Z" fill="#9C0105"/>
</svg>
