<svg width="127" height="112" viewBox="0 0 127 112" fill="none" xmlns="http://www.w3.org/2000/svg">
<path d="M116.194 10.2599C112.63 6.7568 108.372 4.03932 103.694 2.28268C99.0157 0.526041 94.0214 -0.230771 89.0328 0.0610336C84.0442 0.352838 79.1721 1.68678 74.7306 3.97687C70.2892 6.26696 66.3769 9.46236 63.246 13.3571C60.1152 9.46236 56.2029 6.26696 51.7614 3.97687C47.3199 1.68678 42.4479 0.352838 37.4593 0.0610336C32.4707 -0.230771 27.4763 0.526041 22.7981 2.28268C18.12 4.03932 13.8618 6.7568 10.2982 10.2599C3.70338 16.8734 0 25.8321 0 35.1718C0 44.5115 3.70338 53.4701 10.2982 60.0837L60.3913 110.15C60.7645 110.528 61.209 110.828 61.6991 111.032C62.1891 111.237 62.7149 111.342 63.246 111.342C63.7771 111.342 64.3029 111.237 64.793 111.032C65.283 110.828 65.7276 110.528 66.1008 110.15L116.194 60.0837C122.756 53.4529 126.437 44.5007 126.437 35.1718C126.437 25.8428 122.756 16.8907 116.194 10.2599Z" fill="#9C0105"/>
</svg>
