<svg width="128" height="169" viewBox="0 0 128 169" fill="none" xmlns="http://www.w3.org/2000/svg">
<path d="M3.63554 73.4124H11.6816C13.5048 73.4276 15.2832 73.9729 16.7956 74.9806C18.308 75.9882 19.4875 77.4137 20.1875 79.0796C20.8875 80.7455 21.0771 82.5783 20.7325 84.35C20.388 86.1217 19.5246 87.754 18.2498 89.0438L12.6668 94.536C12.1843 95.0345 11.915 95.6981 11.915 96.3884C11.915 97.0786 12.1843 97.7422 12.6668 98.2408L20.45 105.91L25.9673 111.37C26.4686 111.839 27.1326 112.101 27.8228 112.101C28.5131 112.101 29.1771 111.839 29.6783 111.37L35.3599 105.748C36.2122 104.901 37.2257 104.229 38.3417 103.772C39.4578 103.314 40.6544 103.08 41.8623 103.083C44.3118 103.096 46.6581 104.061 48.3963 105.768C50.1344 107.476 51.1255 109.791 51.1563 112.215V119.982C51.1582 120.326 51.2286 120.665 51.3634 120.982C51.4981 121.299 51.6947 121.586 51.9417 121.827C52.1888 122.069 52.4815 122.26 52.8032 122.389C53.1248 122.519 53.4691 122.584 53.8164 122.582H72.5686C73.2648 122.58 73.9318 122.305 74.4241 121.818C74.9164 121.331 75.1938 120.671 75.1958 119.982V112.02C75.2088 110.215 75.7593 108.453 76.7786 106.956C77.7979 105.458 79.2406 104.292 80.9265 103.602C82.6123 102.912 84.4663 102.729 86.2567 103.076C88.047 103.423 89.6943 104.284 90.9923 105.553L96.5424 111.045C97.0501 111.515 97.7193 111.776 98.4144 111.776C99.1095 111.776 99.7786 111.515 100.286 111.045L107.117 104.285C107.216 104.188 107.347 104.09 107.446 103.993L113.554 97.916C114.051 97.424 114.334 96.7592 114.342 96.0636C114.341 95.7186 114.271 95.3772 114.136 95.0592C114.001 94.7412 113.803 94.453 113.554 94.2112L107.873 88.589C106.617 87.2946 105.77 85.6665 105.435 83.9036C105.099 82.1407 105.289 80.3193 105.982 78.6616C106.676 77.004 107.841 75.5819 109.338 74.569C110.834 73.5561 112.596 72.9962 114.408 72.9577H122.257C122.953 72.9557 123.62 72.6811 124.112 72.1939C124.605 71.7068 124.882 71.0467 124.884 70.3577V51.769C124.882 51.0801 124.605 50.42 124.112 49.9329C123.62 49.4457 122.953 49.1712 122.257 49.1692H114.211C112.398 49.1325 110.634 48.5736 109.137 47.561C107.64 46.5483 106.473 45.1258 105.779 43.4674C105.086 41.8089 104.896 39.9865 105.233 38.223C105.57 36.4595 106.419 34.8313 107.676 33.5376L113.226 28.0456C113.708 27.5471 113.977 26.8835 113.977 26.1932C113.977 25.503 113.708 24.8394 113.226 24.3408L99.958 11.2118C99.4579 10.7274 98.7859 10.4562 98.0861 10.4562C97.3863 10.4562 96.7143 10.7274 96.2141 11.2118L90.5326 16.8664C89.2223 18.1097 87.5741 18.948 85.7898 19.2788C84.0055 19.6096 82.1624 19.4184 80.4862 18.7286C78.81 18.0389 77.3733 16.8806 76.3521 15.3954C75.3308 13.9102 74.7693 12.1626 74.7363 10.3665L74.7361 2.59979C74.734 1.91088 74.4565 1.25077 73.9642 0.763656C73.4719 0.276539 72.8048 0.00199816 72.1086 0H53.3239C52.6277 0.00200635 51.9606 0.276556 51.4684 0.763677C50.9761 1.2508 50.6986 1.9109 50.6966 2.59979V10.5618C50.6813 12.3659 50.1301 14.1257 49.1119 15.6223C48.0936 17.1188 46.6531 18.2861 44.9696 18.9788C43.2861 19.6715 41.434 19.859 39.6436 19.5181C37.8532 19.1772 36.2037 18.3229 34.9002 17.0614L29.35 11.5367C28.8499 11.0523 28.1779 10.7811 27.4781 10.7811C26.7783 10.7811 26.1063 11.0523 25.6061 11.5367L12.3386 24.6982C11.8542 25.1892 11.5831 25.8482 11.5831 26.5344C11.5831 27.2205 11.8542 27.8795 12.3386 28.3705L18.0529 33.9926C19.3075 35.2898 20.153 36.9206 20.4862 38.6857C20.8194 40.4508 20.6258 42.2737 19.929 43.9316C19.2323 45.5896 18.0626 47.0108 16.5629 48.0217C15.0632 49.0325 13.2985 49.5892 11.4842 49.6237L3.63554 49.6239C3.28832 49.6258 2.94488 49.6954 2.62487 49.8288C2.30486 49.9622 2.01455 50.1567 1.77055 50.4011C1.52655 50.6456 1.33364 50.9353 1.20285 51.2536C1.07205 51.5719 1.00595 51.9126 1.00831 52.2561V70.8125C1.01029 71.5014 1.28772 72.1615 1.77999 72.6487C2.27226 73.1358 2.93935 73.4104 3.63554 73.4124ZM29.1858 56.2863C29.1843 55.8591 29.2682 55.4358 29.4327 55.0409C29.5972 54.6459 29.839 54.2871 30.1443 53.985C30.4495 53.6829 30.8122 53.4436 31.2113 53.2808C31.6104 53.1181 32.0382 53.035 32.4699 53.0365H42.3877C43.5037 53.0297 44.6062 53.2784 45.6089 53.7632C46.6116 54.2481 47.4874 54.9559 48.1677 55.8313C55.6408 52.8668 61.7769 47.3258 65.4422 40.2323C65.6519 38.8993 65.7508 37.5516 65.738 36.2026C65.8286 34.1686 66.6796 32.2405 68.126 30.7925C69.5723 29.3445 71.5107 28.48 73.5649 28.3666C75.6192 28.2532 77.6427 28.8992 79.2428 30.1791C80.8428 31.459 81.9052 33.2815 82.2238 35.2929C82.7322 40.1119 82.3313 44.9824 81.0416 49.6565H89.613C90.6731 49.7414 91.7044 50.04 92.6436 50.5338C93.5828 51.0276 94.41 51.7063 95.0744 52.5281C95.7388 53.3499 96.2263 54.2975 96.507 55.3126C96.7876 56.3278 96.8556 57.3889 96.7066 58.431C96.7201 60.1456 96.2045 61.8235 95.2288 63.2406C96.2315 64.6567 96.7247 66.3649 96.6294 68.0915C96.5341 69.818 95.8558 71.4629 94.7032 72.7626C95.5535 74.1236 95.9621 75.7097 95.874 77.3075C95.786 78.9052 95.2055 80.438 94.2108 81.6995C95.0229 82.9008 95.4957 84.2951 95.5801 85.7381C95.6646 87.181 95.3576 88.6201 94.691 89.9061C94.0244 91.1922 93.0224 92.2785 91.7889 93.0525C90.5553 93.8265 89.1351 94.2601 87.6753 94.3083C87.6021 94.5171 65.3427 94.146 66.1979 94.3415C59.8844 94.4706 53.668 92.7888 48.2992 89.4989C47.6259 90.4272 46.7381 91.1829 45.7098 91.703C44.6816 92.223 43.5426 92.4924 42.3879 92.4886H32.47C31.5997 92.4861 30.7659 92.1429 30.1505 91.534C29.5352 90.9251 29.1884 90.0999 29.1859 89.2388L29.1858 56.2863ZM67.6423 87.809C61.2311 88.2826 54.8659 86.4219 49.7439 82.5769V62.2331C59.1518 58.6732 66.8881 51.7823 71.4519 42.8971C72.1184 40.8078 72.4074 38.6186 72.3058 36.43C72.307 36.0654 72.4301 35.7115 72.6559 35.4235C72.8816 35.1354 73.1973 34.9293 73.5538 34.8374C78.4647 33.7682 74.5156 48.786 74.2434 49.6568C73.7865 49.5272 73.3071 49.4954 72.8369 49.5633C72.3666 49.6312 71.9164 49.7974 71.5161 50.0507C71.1157 50.3041 70.7745 50.6388 70.5149 51.0327C70.2554 51.4266 70.0835 51.8707 70.0107 52.3354C69.938 52.8001 69.9659 53.2748 70.0928 53.7279C70.2197 54.1811 70.4426 54.6024 70.7466 54.9637C71.0507 55.3251 71.429 55.6183 71.8564 55.8239C72.2838 56.0295 72.7505 56.1427 73.2255 56.1561H89.5802C89.7769 56.3228 89.9302 56.5338 90.0274 56.7713C90.1245 57.0088 90.1626 57.266 90.1385 57.5211C90.227 58.2138 90.0449 59.7633 89.5476 59.7958H77.1008C76.239 59.8096 75.4172 60.158 74.8126 60.766C74.2081 61.3739 73.8692 62.1927 73.8692 63.0456C73.8692 63.8985 74.2081 64.7173 74.8126 65.3252C75.4172 65.9332 76.239 66.2816 77.1008 66.2954H88.7265C89.0837 66.3121 89.4204 66.4653 89.6657 66.7229C89.911 66.9804 90.0458 67.3221 90.0415 67.676C90.0373 68.0298 89.8944 68.3683 89.643 68.6199C89.3916 68.8716 89.0513 69.0169 88.6937 69.0253H77.1007C76.6686 69.024 76.2404 69.1071 75.8408 69.2698C75.4412 69.4325 75.078 69.6717 74.772 69.9736C74.466 70.2755 74.2232 70.6342 74.0575 71.0291C73.8918 71.424 73.8066 71.8474 73.8066 72.275C73.8066 72.7026 73.8918 73.126 74.0575 73.521C74.2232 73.9159 74.466 74.2746 74.772 74.5765C75.078 74.8784 75.4412 75.1176 75.8408 75.2803C76.2404 75.443 76.6686 75.5261 77.1007 75.5248H87.9053C88.2463 75.5303 88.5735 75.6589 88.8253 75.8865C89.0771 76.114 89.2362 76.4248 89.2725 76.7604C89.3088 77.0959 89.2199 77.433 89.0226 77.7082C88.8252 77.9834 88.533 78.1777 88.2009 78.2545C88.0687 78.2467 87.9359 78.2577 87.8068 78.287H77.7575C76.881 78.1677 75.991 78.3763 75.2616 78.872C74.6666 79.2762 74.2245 79.865 74.0052 80.5454C73.7858 81.2258 73.8016 81.9592 74.0501 82.6297C74.2985 83.3002 74.7655 83.8698 75.3774 84.2486C75.9892 84.6275 76.7111 84.7939 77.4292 84.7217H87.6756C87.7591 84.7418 87.9061 84.7291 87.9709 84.7866C89.4981 85.1157 89.3565 87.8283 87.6755 87.8089L67.6423 87.809ZM42.3876 85.9893H35.7541V59.536H42.3878C42.4917 59.5346 42.5948 59.5538 42.691 59.5926C42.7873 59.6313 42.8747 59.6887 42.9482 59.7614C43.0216 59.8341 43.0796 59.9206 43.1187 60.0158C43.1579 60.1111 43.1773 60.2131 43.1759 60.3159V85.2091C43.1731 85.4151 43.0892 85.6119 42.942 85.7575C42.7948 85.9032 42.5958 85.9865 42.3876 85.9893ZM56.0497 129.081L35.7867 168.663C35.7448 168.779 35.6618 168.876 35.553 168.936C35.4442 168.996 35.3172 169.015 35.1956 168.989C35.0756 168.973 34.9636 168.921 34.8752 168.84C34.7868 168.758 34.7266 168.651 34.7031 168.533L30.1052 148.905C29.8594 147.912 29.4013 146.983 28.7618 146.18C28.1223 145.378 27.3162 144.72 26.398 144.252C25.4798 143.784 24.4708 143.516 23.4391 143.466C22.4073 143.417 21.3769 143.587 20.4172 143.965L0.811264 151.927C0.69914 151.968 0.577375 151.975 0.461357 151.947C0.345339 151.919 0.240275 151.857 0.159444 151.771C0.0786131 151.684 0.0256427 151.575 0.00722704 151.458C-0.0111886 151.341 0.00577746 151.222 0.0559806 151.115L19.1366 113.807L21.304 115.952C23.0606 117.61 25.3951 118.536 27.8228 118.536C30.2506 118.536 32.5851 117.61 34.3417 115.952L40.0233 110.33C40.4076 109.962 40.8943 109.716 41.4208 109.623C41.9473 109.531 42.4899 109.596 42.9789 109.81C43.4555 110.011 43.862 110.346 44.1481 110.773C44.4342 111.201 44.5872 111.702 44.5882 112.215V119.982C44.6278 121.364 44.9707 122.722 45.5931 123.96C46.2154 125.199 47.1025 126.288 48.1927 127.154C49.2829 128.019 50.5503 128.64 51.9069 128.973C53.2636 129.306 54.6772 129.343 56.0497 129.081ZM127.84 150.822C127.762 150.915 127.656 150.98 127.538 151.01C127.42 151.039 127.296 151.03 127.183 150.985L107.577 143.055C106.618 142.674 105.587 142.501 104.554 142.549C103.521 142.597 102.511 142.865 101.592 143.333C100.673 143.802 99.8663 144.461 99.2273 145.265C98.5884 146.07 98.132 147.001 97.889 147.995L93.324 167.559C93.3104 167.68 93.2532 167.793 93.1629 167.876C93.0726 167.96 92.955 168.009 92.8315 168.014C92.7144 168.032 92.5944 168.014 92.4883 167.961C92.3823 167.909 92.2954 167.825 92.2399 167.721C92.338 167.721 72.1933 128.908 72.5684 129.081C75.0067 129.08 77.3447 128.121 79.0688 126.414C80.793 124.708 81.7623 122.395 81.7638 119.982V112.02C81.7861 111.503 81.9572 111.003 82.2569 110.579C82.5565 110.155 82.9723 109.825 83.4554 109.627C83.9384 109.429 84.4685 109.372 84.9834 109.462C85.4983 109.552 85.9764 109.785 86.3616 110.135L91.9117 115.627C93.6619 117.285 95.9913 118.211 98.4143 118.211C100.837 118.211 103.167 117.285 104.917 115.627L108.464 112.117L127.938 150.172C127.992 150.277 128.011 150.396 127.994 150.513C127.976 150.629 127.922 150.737 127.84 150.822Z" fill="black"/>
</svg>
