<svg width="309" height="389" viewBox="0 0 309 389" fill="none" xmlns="http://www.w3.org/2000/svg">
<path d="M223.314 388.171C217.962 387.88 213.137 385.154 210.091 380.72L81.3791 192.477C76.0345 184.642 78.0556 173.924 85.8768 168.565C86.3536 168.245 86.802 167.968 87.2646 167.711C89.791 166.224 92.8013 165.406 95.8686 165.406H135.558C169.547 165.406 197.21 136.021 197.21 99.8966C197.21 98.7936 197.181 97.6905 197.132 96.6016H17.201C7.71447 96.6016 0 88.8872 0 79.4006C0 69.9141 7.71447 62.1997 17.201 62.1997H185.937C174.451 44.9062 155.627 34.3948 135.551 34.3948H17.201C7.71447 34.3948 0 26.6804 0 17.201C0 7.71447 7.71447 0 17.201 0H291.477C300.964 0 308.678 7.71447 308.678 17.201C308.678 26.6875 300.964 34.402 291.477 34.402H208.02C214.93 42.6715 220.545 52.1296 224.488 62.2068H291.463C300.943 62.2068 308.657 69.9212 308.657 79.4006C308.657 88.8872 300.942 96.6016 291.456 96.6016H231.541C231.576 97.6976 231.591 98.7936 231.591 99.8966C231.591 154.987 188.485 199.808 135.537 199.808H128.043L238.48 361.292C243.81 369.12 241.803 379.824 233.996 385.182C231.128 387.125 227.769 388.186 224.289 388.186L223.314 388.171Z" fill="white"/>
</svg>
