<svg width="514" height="514" viewBox="0 0 514 514" fill="none" xmlns="http://www.w3.org/2000/svg">
<path d="M256.868 510.815C397.119 510.815 510.815 397.119 510.815 256.868C510.815 116.617 397.119 2.92041 256.868 2.92041C116.617 2.92041 2.92041 116.617 2.92041 256.868C2.92041 397.119 116.617 510.815 256.868 510.815Z" stroke="white" stroke-width="4"/>
<path d="M303.571 348.549H221.841C196.154 348.549 175.137 327.739 175.137 302.306V221.38C175.137 195.947 196.154 175.137 221.841 175.137H303.571C329.258 175.137 350.275 195.947 350.275 221.38V302.306C350.275 327.739 329.258 348.549 303.571 348.549Z" stroke="white" stroke-width="4" stroke-miterlimit="10" stroke-linecap="round" stroke-linejoin="round"/>
<path d="M262.704 302.307C285.273 302.307 303.57 284.191 303.57 261.844C303.57 239.497 285.273 221.382 262.704 221.382C240.135 221.382 221.839 239.497 221.839 261.844C221.839 284.191 240.135 302.307 262.704 302.307Z" stroke="white" stroke-width="4" stroke-miterlimit="10" stroke-linecap="round" stroke-linejoin="round"/>
<path d="M309.41 215.602C312.634 215.602 315.248 213.014 315.248 209.821C315.248 206.629 312.634 204.041 309.41 204.041C306.186 204.041 303.572 206.629 303.572 209.821C303.572 213.014 306.186 215.602 309.41 215.602Z" stroke="white" stroke-width="4" stroke-miterlimit="10" stroke-linecap="round" stroke-linejoin="round"/>
</svg>

