<svg width="70" height="47" viewBox="0 0 70 47" fill="none" xmlns="http://www.w3.org/2000/svg">
<path fill-rule="evenodd" clip-rule="evenodd" d="M5.57492e-06 23.4996C5.62475e-06 24.0696 0.240629 24.6139 0.640942 25.0238L22.295 46.3684C23.1503 47.2116 24.535 47.2095 25.3881 46.3684C26.2434 45.5273 26.2434 44.1611 25.3881 43.3201L7.46594 25.6556L67.8125 25.6556C69.02 25.6556 70 24.6907 70 23.4996C70 22.3084 69.02 21.3436 67.8125 21.3436L7.46813 21.3436L25.3881 3.67911C26.2434 2.83805 26.2413 1.47186 25.3881 0.630795C24.5328 -0.210268 23.1481 -0.210268 22.295 0.630796L0.640941 21.9754C0.231879 22.3789 0.00656802 22.9339 5.57492e-06 23.4996Z" fill="#121313"/>
</svg>
