<svg width="273" height="273" viewBox="0 0 273 273" fill="none" xmlns="http://www.w3.org/2000/svg">
<path fill-rule="evenodd" clip-rule="evenodd" d="M218.746 173.583L189.854 170.284C182.915 169.488 176.09 171.877 171.199 176.768L150.269 197.698C118.078 181.318 91.6877 155.042 75.3077 122.737L96.3515 101.693C101.243 96.8018 103.631 89.9768 102.835 83.038L99.5365 54.373C98.1715 42.8843 88.5027 34.2393 76.9002 34.2393H57.2215C44.3677 34.2393 33.6752 44.9318 34.4715 57.7855C40.5002 154.928 118.191 232.505 215.22 238.534C228.074 239.33 238.766 228.638 238.766 215.784V196.106C238.88 184.617 230.235 174.948 218.746 173.583Z" fill="#9C0105"/>
</svg>
