<svg width="514" height="514" viewBox="0 0 514 514" fill="none" xmlns="http://www.w3.org/2000/svg">
<path d="M256.868 510.815C397.119 510.815 510.815 397.119 510.815 256.868C510.815 116.617 397.119 2.92041 256.868 2.92041C116.617 2.92041 2.92041 116.617 2.92041 256.868C2.92041 397.119 116.617 510.815 256.868 510.815Z" stroke="white" stroke-width="4"/>
<path d="M230.833 235.827H233.754V232.906V202.642C233.754 186.802 238.56 174.918 246.546 166.996C254.541 159.065 266.046 154.784 280.058 154.784C291.493 154.784 301.576 155.495 306.648 155.995V184.822H289.307C280.967 184.822 275.181 186.812 271.63 191.053C268.175 195.177 267.427 200.767 267.427 206.44V232.906V235.827H270.348H302.887L298.716 268.397H270.348H267.427V271.317V365.057H233.754V271.317V268.397H230.833H201.511V235.827H230.833Z" stroke="white" stroke-width="4"/>
</svg>

